<svg width="37" height="35" viewBox="0 0 37 35" fill="none" xmlns="http://www.w3.org/2000/svg">
<path d="M12.8983 30.8142C12.8853 30.8142 12.8728 30.8142 12.8599 30.8139C12.0164 30.7969 11.2859 30.222 11.0666 29.4034L7.48971 16.0473H2.51747C1.46995 16.0473 0.621021 15.1936 0.621021 14.1408C0.621021 13.088 1.46995 12.2343 2.51747 12.2343H8.94338C9.80104 12.2343 10.5518 12.8127 10.7748 13.6453L13.0345 22.0838L19.4909 1.33768C19.7385 0.542117 20.4719 0.000305176 21.3011 0.000305176H34.0253C35.0729 0.000305176 35.9218 0.853978 35.9218 1.90679C35.9218 2.95961 35.0729 3.81328 34.0253 3.81328H22.6947L14.708 29.4766C14.4598 30.2739 13.7258 30.8142 12.8983 30.8142V30.8142Z" fill="#454045"/>
<path d="M28.0582 34.518C24.2256 34.518 23.9448 34.4238 23.6879 34.3376C23.0553 34.1257 22.5826 33.6453 22.391 33.0193C22.0603 31.9387 22.5263 31.3252 23.7716 29.686C24.7913 28.3441 26.689 25.8462 29.8681 21.2795C30.8155 19.9186 31.4265 18.6995 31.6846 17.6542L31.7536 17.1111C31.6968 15.3692 30.2696 13.9697 28.5231 13.9697C26.982 13.9697 25.6479 15.0706 25.3516 16.5871C25.1496 17.6203 24.1536 18.2934 23.1248 18.0903C22.097 17.8874 21.4274 16.8852 21.6295 15.8519C22.2746 12.5517 25.1737 10.1562 28.5231 10.1562C32.397 10.1562 35.5485 13.3244 35.5485 17.2188C35.5485 17.2997 35.5433 17.3806 35.5333 17.461L35.4342 18.2403C35.4259 18.3037 35.415 18.3666 35.4005 18.4287C35.0449 19.9707 34.2289 21.6655 32.9758 23.4656C30.5803 26.9068 28.8996 29.1925 27.7691 30.6997C29.6758 30.6985 32.1523 30.683 34.4781 30.6536H34.5023C35.5386 30.6536 36.3852 31.4915 36.398 32.5363C36.4114 33.5891 35.5729 34.4536 34.5257 34.4669C31.6624 34.5029 29.5803 34.518 28.0582 34.518Z" fill="#665E66"/>
</svg>
