<svg width="18" height="36" viewBox="0 0 18 36" fill="none" xmlns="http://www.w3.org/2000/svg">
<path d="M7.35074 30.968L8.26371 30.0502C9.0045 29.3057 9.0045 28.0984 8.26396 27.3539C7.52317 26.6095 6.32216 26.6092 5.58187 27.3539L4.66865 28.272L3.75544 27.3539C3.01515 26.6095 1.81414 26.6095 1.07335 27.3539C0.332806 28.0984 0.332808 29.3057 1.0736 30.0502L1.98656 30.968L1.0736 31.8858C0.332808 32.6303 0.332806 33.8376 1.07335 34.5821C1.44387 34.9543 1.929 35.1404 2.41464 35.1404C2.89978 35.1404 3.38541 34.9543 3.75568 34.5821L4.6689 33.664L5.58212 34.5821C5.95239 34.9543 6.43778 35.1404 6.92316 35.1404C7.4083 35.1404 7.89394 34.9543 8.26446 34.5821C9.005 33.8376 9.005 32.6303 8.26421 31.8858L7.35074 30.968Z" fill="#DA4A54"/>
<path d="M11.6041 22.1708C11.3285 22.1708 11.0485 22.1101 10.7836 21.9821C9.83974 21.526 9.4423 20.3868 9.89605 19.4377L12.9786 12.992H9.04238C8.3903 12.992 7.78382 12.6554 7.43697 12.1003C7.08987 11.5452 7.0505 10.8501 7.33306 10.2592L11.722 1.08092C12.176 0.131813 13.31 -0.26747 14.2533 0.188674C15.1972 0.645069 15.5946 1.78405 15.1409 2.73316L12.0584 9.17879H15.9945C16.6466 9.17879 17.2531 9.51545 17.6 10.0705C17.9471 10.6256 17.9864 11.3207 17.7039 11.9117L13.3147 21.0899C12.9883 21.7722 12.31 22.1708 11.6041 22.1708V22.1708Z" fill="#F4DD45"/>
</svg>
