<svg width="16" height="16" viewBox="0 0 16 16" fill="none" xmlns="http://www.w3.org/2000/svg">
<path d="M13.1689 6.22288H9.51276V2.54717C9.51276 1.49411 8.66383 0.640686 7.61631 0.640686C6.56879 0.640686 5.71986 1.49436 5.71986 2.54717V6.22288H2.06325C1.01573 6.22288 0.166801 7.07655 0.166801 8.12936C0.166801 9.18243 1.01573 10.0358 2.06325 10.0358H5.71961V13.7116C5.71961 14.7646 6.56854 15.618 7.61606 15.618C8.66358 15.618 9.51252 14.7644 9.51252 13.7116V10.0358H13.1686C14.2161 10.0358 15.0651 9.18218 15.0651 8.12936C15.0656 7.0763 14.2164 6.22288 13.1689 6.22288V6.22288Z" fill="#DA4A54"/>
</svg>
