<svg width="31" height="31" viewBox="0 0 31 31" fill="none" xmlns="http://www.w3.org/2000/svg">
<path d="M2.95862 30.837C2.02996 30.837 1.43917 30.4731 0.997384 30.0292C-0.878637 28.1427 0.954778 24.8137 2.76128 22.1242C4.05199 20.2027 5.58366 18.3468 7.31317 16.6081L16.4914 7.3813C18.2227 5.64088 20.0696 4.10087 21.9807 2.80408C24.6553 0.988768 27.9658 -0.853091 29.8414 1.0326C31.0867 2.28456 31.7009 4.73185 25.3418 12.6093C23.5909 14.7765 21.4804 17.1134 19.2378 19.3675C16.995 21.6225 14.6705 23.7441 12.5161 25.5031C7.45718 29.6304 4.64901 30.837 2.95862 30.837V30.837ZM9.99551 19.3044C8.43668 20.8715 7.06051 22.5383 5.90509 24.2584C5.30832 25.1466 4.89818 25.8472 4.61687 26.3898C5.78125 25.7756 7.58301 24.6171 10.1251 22.543C12.1798 20.8657 14.4034 18.8352 16.5557 16.6715C18.7076 14.5085 20.7276 12.2729 22.3971 10.2061C24.4592 7.65158 25.6112 5.84103 26.2216 4.67073C25.6824 4.95354 24.9862 5.36535 24.1034 5.96427C22.3928 7.12529 20.7343 8.50901 19.174 10.0773L9.99551 19.3044Z" fill="#F4DD45"/>
<path d="M15.4192 24.968C20.6047 24.968 24.8083 20.7421 24.8083 15.5293C24.8083 10.3164 20.6047 6.09052 15.4192 6.09052C10.2338 6.09052 6.03017 10.3164 6.03017 15.5293C6.03017 20.7421 10.2338 24.968 15.4192 24.968Z" fill="#80B4FB"/>
<path d="M23.9801 8.1543C23.5233 8.77677 23.0001 9.4586 22.3966 10.2061C20.7271 12.2726 18.7071 14.5083 16.5552 16.6715C14.4031 18.8352 12.1793 20.8657 10.1246 22.543C9.50763 23.0462 8.93528 23.4949 8.40405 23.8956L11.5249 26.2969C11.8454 26.0449 12.175 25.7813 12.5154 25.5035C14.6697 23.7444 16.9943 21.6227 19.2371 19.368C21.4796 17.1139 23.5904 14.777 25.341 12.6098C25.8332 12.0001 26.2789 11.4267 26.6906 10.8799L23.9801 8.1543Z" fill="#F4DD45"/>
</svg>
