<svg width="26" height="26" viewBox="0 0 26 26" fill="none" xmlns="http://www.w3.org/2000/svg">
<path d="M12.6784 23.8397C18.633 23.8397 23.4601 18.987 23.4601 13.0009C23.4601 7.01487 18.633 2.1622 12.6784 2.1622C6.72383 2.1622 1.8967 7.01487 1.8967 13.0009C1.8967 18.987 6.72383 23.8397 12.6784 23.8397Z" fill="#F6F1F1"/>
<path d="M12.6784 25.7464C5.68761 25.7464 0 20.0287 0 13.0009C0 5.97316 5.68761 0.255707 12.6784 0.255707C19.6689 0.255707 25.3565 5.97316 25.3565 13.0009C25.3565 20.0287 19.6692 25.7464 12.6784 25.7464ZM12.6784 4.06893C7.77917 4.06893 3.79315 8.07578 3.79315 13.0009C3.79315 17.9261 7.77917 21.9332 12.6784 21.9332C17.5776 21.9332 21.5634 17.9263 21.5634 13.0009C21.5634 8.07553 17.5776 4.06893 12.6784 4.06893Z" fill="#80B4FB"/>
<path d="M15.5175 14.9074H12.6784C11.6309 14.9074 10.7819 14.0537 10.7819 13.0009V7.548C10.7819 6.49493 11.6309 5.64151 12.6784 5.64151C13.7259 5.64151 14.5748 6.49518 14.5748 7.548V11.0944H15.5172C16.5647 11.0944 17.4137 11.9481 17.4137 13.0009C17.4139 14.054 16.565 14.9074 15.5175 14.9074V14.9074Z" fill="#454045"/>
</svg>
