<svg width="21" height="26" viewBox="0 0 21 26" fill="none" xmlns="http://www.w3.org/2000/svg">
<path d="M20.5519 23.2461L12.7468 2.45482C12.7403 2.43729 12.7336 2.42 12.7263 2.40247C12.3591 1.50471 11.4982 0.925323 10.5329 0.925323C10.5319 0.925323 10.5306 0.925323 10.5299 0.925323C9.56335 0.926576 8.70271 1.50847 8.33692 2.40798C8.33119 2.42201 8.32571 2.43628 8.32048 2.45031L0.443886 23.2408C0.0708746 24.2247 0.562492 25.3264 1.54099 25.7011C2.51974 26.0756 3.6156 25.5821 3.98861 24.598L5.48514 20.648H15.5226L17.0034 24.5925C17.2899 25.356 18.0118 25.8264 18.778 25.8264C19.0005 25.8264 19.227 25.7868 19.4475 25.7031C20.427 25.3314 20.9216 24.2313 20.5519 23.2461V23.2461ZM6.9296 16.8348L10.5267 7.3404L14.0908 16.8348H6.9296Z" fill="#6EC17D"/>
</svg>
