<svg width="89" height="89" viewBox="0 0 89 89" fill="none" xmlns="http://www.w3.org/2000/svg">
<path d="M79.4355 62.7537H79.4851C83.7417 62.7537 87.1908 59.2834 87.1908 55.0073C87.1908 50.7281 83.7417 47.2578 79.4851 47.2578C79.4298 47.2578 79.3743 47.2578 79.3189 47.2608H8.75825C8.70293 47.2578 8.64737 47.2578 8.59205 47.2578C4.33544 47.2578 0.886391 50.7281 0.886391 55.0073C0.886391 59.2834 4.33544 62.7537 8.59205 62.7537H8.64164" fill="#F1B986"/>
<path d="M77.6632 27.0292C55.2469 24.8444 32.8306 24.8444 10.4143 27.0292C8.67478 41.0406 8.16248 55.0518 8.87711 69.0633C9.39738 79.2628 17.5162 87.3812 27.664 87.8629C38.5805 88.3809 49.4967 88.3809 60.4132 87.8629C70.561 87.3812 78.6798 79.2628 79.2001 69.0633C79.915 55.0518 79.4027 41.0404 77.6632 27.0292Z" fill="#F1D0A5"/>
<path d="M10.4155 27.0269C21.6218 25.9343 32.8313 25.3897 44.0408 25.3897C38.3659 25.3897 32.6908 25.941 27.0159 27.0437C26.1331 41.1902 25.8754 55.3369 26.2367 69.4801C26.4742 78.7891 29.8584 86.38 34.2994 88.1114C32.089 88.0508 29.8751 87.9669 27.6647 87.8627C17.5187 87.382 9.39912 79.2631 8.87735 69.0633C8.16497 55.0511 8.67652 41.0389 10.4155 27.0269V27.0269Z" fill="#F1B986"/>
<path d="M44.0386 71.8159C40.2449 71.8159 36.7423 69.5891 35.1152 66.1428C34.666 65.1915 35.0691 64.0545 36.0152 63.6028C36.9611 63.1517 38.0926 63.5565 38.5418 64.5079C39.5443 66.6308 41.7019 68.0027 44.0383 68.0027C46.3753 68.0027 48.5329 66.631 49.5351 64.5079C49.9843 63.5565 51.1161 63.1517 52.0617 63.6028C53.008 64.0545 53.411 65.1915 52.9617 66.1428C51.3351 69.5891 47.8322 71.8159 44.0386 71.8159V71.8159Z" fill="#DA4A54"/>
<path d="M27.6308 47.496C25.8677 47.496 24.4334 49.645 24.4334 52.2862C24.4334 54.9276 25.8677 57.0763 27.6308 57.0763C29.394 57.0763 30.8285 54.9273 30.8285 52.2862C30.8287 49.6447 29.3942 47.496 27.6308 47.496Z" fill="#454045"/>
<path d="M60.4464 47.496C58.6832 47.496 57.249 49.645 57.249 52.2862C57.249 54.9276 58.6832 57.0763 60.4464 57.0763C62.2095 57.0763 63.644 54.9273 63.644 52.2862C63.644 49.6447 62.2095 47.496 60.4464 47.496Z" fill="#454045"/>
<path d="M62.7098 38.6805C49.8254 43.6841 31.5234 41.4777 22.2998 32.2053C22.2998 32.2053 20.1095 47.2603 8.76147 47.2603L3.81291 48.9334C-9.40395 -3.22036 18.7864 10.715 18.7864 10.715C21.4478 5.52979 25.3245 3.38333 29.375 2.86557C29.7316 2.82123 30.0882 2.78816 30.447 2.76587C30.4756 2.76587 30.5043 2.76362 30.5329 2.76136C33.386 2.60856 36.2741 3.1907 38.8408 4.02058C39.7346 4.3104 40.591 4.62927 41.3921 4.95892C44.6172 6.28452 46.9659 7.77394 47.459 8.09256C47.5228 8.1369 47.5559 8.15894 47.5559 8.15894C50.4573 4.29938 53.2243 0.807281 56.2667 0.807281C57.5148 0.807281 58.3777 1.28747 58.9568 2.05548C61.1515 4.9479 59.3487 11.9033 59.2032 12.4499L59.1965 12.4741C59.1987 12.4696 59.201 12.4609 59.2052 12.4499L59.2207 12.41C59.6104 11.4231 63.9689 0.807281 71.7859 0.807281C72.279 0.807281 72.7216 0.853623 73.1155 0.942296C78.9424 2.23683 74.3813 12.4832 73.8795 13.5675L73.8663 13.5986C73.8531 13.6252 73.8443 13.6452 73.8399 13.654C74.0885 13.3353 83.8471 0.880676 88.1837 6.59463C88.186 6.59913 88.186 6.59913 88.1882 6.60139C92.5622 12.3967 75.5878 33.6792 62.7098 38.6805V38.6805Z" fill="#F4DD45"/>
<path d="M88.1833 6.59439H88.181C85.9885 4.39257 78.3938 14.7869 73.8327 13.6605L73.8658 13.5986C73.8526 13.6252 73.8439 13.6452 73.8394 13.654C74.0881 13.3351 83.8467 0.880434 88.1833 6.59439Z" fill="#ECC32E"/>
<path d="M73.115 0.942296C69.8212 0.190323 66.7681 6.49292 65.0428 10.9672C64.2086 13.1309 61.6247 13.9991 59.6627 12.7765L59.1915 12.4829L59.196 12.4741L59.2027 12.4498H59.205L59.2204 12.41C59.6101 11.4231 63.9687 0.807281 71.7857 0.807281C72.2786 0.807281 72.7211 0.853873 73.115 0.942296V0.942296Z" fill="#ECC32E"/>
<path d="M29.3738 2.86533C19.9476 4.5361 16.3859 26.2612 22.2988 32.2051C22.2988 32.2051 20.1086 47.2601 8.76049 47.2601L3.81192 48.9331C-9.40493 -3.22035 18.7854 10.7147 18.7854 10.7147C21.4466 5.5298 25.3232 3.38334 29.3738 2.86533V2.86533Z" fill="#ECC32E"/>
<path d="M58.956 2.05548C55.643 -1.27505 53.4351 15.8047 45.9769 18.54C38.5187 21.2754 37.821 17.7788 37.821 17.7788V17.7765C41.4928 16.4111 44.5922 12.0959 47.5532 8.15668C47.5554 8.15894 47.5554 8.15894 47.5554 8.15894C47.6456 8.0372 47.7358 7.91772 47.8263 7.79823C47.9386 7.64543 48.0552 7.49289 48.1696 7.34234C50.851 3.82144 53.4396 0.807281 56.2662 0.807281C57.5141 0.807281 58.3772 1.28747 58.956 2.05548V2.05548Z" fill="#ECC32E"/>
</svg>
