<svg width="156" height="156" viewBox="0 0 156 156" fill="none" xmlns="http://www.w3.org/2000/svg">
<g clip-path="url(#clip0)">
<path d="M143.337 43.0606L144.266 40.4781L126.296 30.1064L123.781 30.5914L120.939 29.8711L121.659 27.4304L101.885 16.0177L100.132 16.4947L96.929 15.4888L97.2787 13.3592L78.3672 2.44538C78.0381 2.2578 77.6384 2.2578 77.3124 2.44846L59.1469 13.1317L59.8782 15.5909L57.7111 16.7699L54.616 15.7963L35.2497 27.1859L35.7743 28.8717L33.3148 30.2937L30.7095 29.8561L11.8293 40.9597L12.397 43.1609L11.5593 43.7175L77.8379 81.6038L144.403 43.1873C143.781 43.1154 143.337 43.0606 143.337 43.0606V43.0606Z" fill="#FEF056"/>
<path d="M86.2003 140.235L83.8542 88.4154L77.8383 81.6038L76.3468 75.9525L18.413 44.8116L13.2061 43.4853L9.31721 44.7652V63.6466L10.9588 65.1107L10.8075 68.1154L9.31721 68.966V87.9098L10.3013 90.0919L10.1152 93.109L9.31752 93.2083V114.081C9.31752 114.456 9.52049 114.804 9.84646 114.988L28.4596 125.628L29.0529 124.795L32.7548 127.409L33.0724 128.265L52.4919 139.366L53.6747 138.634L56.5801 140.646L57.1047 142.003L77.3158 153.557C77.4941 153.658 77.694 153.704 77.8908 153.692L77.8902 152.696L86.2003 140.235Z" fill="#A6E7F0"/>
<path d="M146.682 44.3694L144.947 43.7473L77.8383 82.6848L77.8905 153.692C78.0535 153.686 78.2104 153.64 78.358 153.554L98.5718 141.889L99.1795 140.14L102.515 138.399L103.185 139.226L122.604 128.02L123.286 126.707L126.595 125.036L127.217 125.357L146.16 114.425C146.483 114.238 146.682 113.893 146.682 113.521V92.1419L145.952 92.0733L145.734 88.1989L146.682 86.7917V68.7735L146.137 68.6536L145.671 65.0608L146.682 63.4731V44.3694Z" fill="#FD8087"/>
<path d="M43.6505 34.6026C60.786 24.4736 88.3751 8.22151 88.3751 8.22151L78.3672 2.44538C78.0382 2.2578 77.6384 2.2578 77.3124 2.44846L59.147 13.1317V15.0143L56.5121 15.9885L54.616 15.7963L35.2497 27.1859L35.3336 28.5261L33.169 30.187L30.7095 29.8558L11.8293 40.9593L12.9825 43.1686L79.2033 80.2449L87.8539 75.3938L43.7655 50.1948C37.759 46.7619 37.6944 38.1234 43.6505 34.6026V34.6026Z" fill="#FEE903"/>
<path d="M147.312 39.573L139.321 34.9618C138.218 34.3246 136.808 34.7032 136.171 35.8066C135.534 36.9099 135.912 38.3202 137.016 38.9571L142.068 41.8727L124.911 51.7742L106.454 41.1094L123.548 31.1849L128.202 33.8704C129.304 34.5067 130.715 34.1293 131.352 33.0257C131.989 31.9223 131.611 30.512 130.507 29.8751L79.5192 0.448356C78.4751 -0.154381 77.1817 -0.148846 76.1438 0.461886L25.1357 30.4585C24.0378 31.1043 23.671 32.5176 24.3167 33.6158C24.7464 34.3465 25.5164 34.7536 26.307 34.7533C26.7043 34.7533 27.1069 34.6506 27.474 34.4347L32.5189 31.4678L49.3869 41.2152L30.7965 52.0568L13.9162 42.4078L17.9714 40.0229C19.0692 39.3772 19.4361 37.9638 18.7903 36.8657C18.1442 35.7675 16.73 35.4009 15.633 36.0467L8.66435 40.145C7.64492 40.7447 7.01174 41.8521 7.01174 43.0345V114.081C7.01174 115.281 7.65876 116.396 8.70033 116.991L76.1712 155.559C76.6851 155.853 77.2604 156 77.8355 156C78.4152 156 78.9948 155.851 79.5108 155.553L147.311 116.424C148.346 115.827 148.988 114.714 148.988 113.52V42.4763C148.988 41.2822 148.346 40.1696 147.312 39.573V39.573ZM52.4916 69.7717V88.4153L33.0721 77.3145V58.6709L52.4916 69.7717ZM144.375 64.4974L127.217 74.4002V55.7691L144.375 45.8664V64.4974ZM122.604 77.062L103.185 88.2696V69.6385L122.604 58.431V77.062ZM75.5319 82.9421V101.586L57.1044 91.052V72.4084L75.5319 82.9421ZM80.1446 106.893L98.5721 96.2577V114.888L80.1446 125.523V106.893ZM80.1446 101.567V82.9357L98.5721 72.3007V90.9318L80.1446 101.567ZM77.8327 78.9444L59.4182 68.4183L77.8961 57.6902L96.2666 68.3058L77.8327 78.9444ZM28.4593 74.6779L11.6248 65.0547V46.411L28.4593 56.0342V74.6779ZM11.6245 70.3677L28.459 79.9909V98.6342L11.6245 89.0113V70.3677ZM33.0721 82.6275L52.4916 93.7283V112.372L33.0721 101.271V82.6275ZM57.1044 96.3653L75.5319 106.899V125.542L57.1044 115.009V96.3653ZM75.5319 130.855V149.88L57.1044 139.347V120.322L75.5319 130.855ZM80.1446 130.849L98.5721 120.214V139.226L80.1446 149.861V130.849ZM103.185 117.552L122.604 106.345V125.357L103.185 136.564V117.552ZM103.185 112.226V93.5955L122.604 82.388V101.019L103.185 112.226ZM127.217 79.7258L144.375 69.8231V88.4538L127.217 98.3565V79.7258ZM120.299 54.436L100.879 65.6436L82.495 55.02L101.856 43.7796L120.299 54.436ZM77.8908 52.3594L58.5747 41.1974L77.8915 29.9323L97.2513 41.1189L77.8908 52.3594ZM101.85 38.4488L82.4803 27.2563L99.5217 17.3182L118.942 28.5261L101.85 38.4488ZM77.849 4.81051L94.9194 14.6622L77.8804 24.5984L60.8921 14.7821L77.849 4.81051ZM37.0883 28.7807L56.3233 17.4692L73.2922 27.2744L53.9757 38.5395L37.0883 28.7807ZM53.9862 43.8731L73.2919 55.0293L54.7891 65.7718L35.4203 54.7002L53.9862 43.8731ZM11.6245 94.3243L28.459 103.947V107.833C28.459 109.107 29.4914 110.139 30.7654 110.139C32.0395 110.139 33.0718 109.107 33.0718 107.833V106.584L52.4913 117.685V136.71L33.0718 125.609V118.897C33.0718 117.623 32.0395 116.591 30.7654 116.591C29.4914 116.591 28.459 117.623 28.459 118.897V122.973L11.6245 113.35V94.3243ZM127.217 122.695V103.683L144.375 93.78V112.792L127.217 122.695Z" fill="black"/>
</g>
<defs>
<clipPath id="clip0">
<rect width="156" height="156" fill="white"/>
</clipPath>
</defs>
</svg>
