<svg width="60" height="60" viewBox="0 0 60 60" fill="none" xmlns="http://www.w3.org/2000/svg">
<path d="M50.625 45.9375V51.5625C50.625 55.1906 41.3906 58.125 30 58.125C18.6094 58.125 9.375 55.1906 9.375 51.5625V45.9375C9.375 49.5656 18.6094 52.5 30 52.5C41.3906 52.5 50.625 49.5656 50.625 45.9375Z" fill="#FC6E51"/>
<path d="M50.625 40.3125V45.9375C50.625 49.5656 41.3906 52.5 30 52.5C18.6094 52.5 9.375 49.5656 9.375 45.9375V40.3125C9.375 43.9406 18.6094 46.875 30 46.875C41.3906 46.875 50.625 43.9406 50.625 40.3125Z" fill="#FF826E"/>
<path d="M50.625 34.6875V40.3125C50.625 43.9406 41.3906 46.875 30 46.875C18.6094 46.875 9.375 43.9406 9.375 40.3125V34.6875C9.375 38.3156 18.6094 41.25 30 41.25C41.3906 41.25 50.625 38.3156 50.625 34.6875Z" fill="#FC6E51"/>
<path d="M39.0656 28.7906C45.9094 29.8594 50.625 32.1 50.625 34.6875C50.625 38.3156 41.3906 41.25 30 41.25C18.6094 41.25 9.375 38.3156 9.375 34.6875C9.375 32.1 14.0906 29.8594 20.9344 28.7906C21.7687 29.8219 22.2938 31.0687 22.4531 32.3906C19.0781 32.8969 16.875 33.7406 16.875 34.6875C16.875 35.6437 19.0969 36.4875 22.5 36.9937C24.6281 37.3125 27.2156 37.5 30 37.5C32.7844 37.5 35.3719 37.3125 37.5 36.9937C40.9031 36.4875 43.125 35.6437 43.125 34.6875C43.125 33.7406 40.9219 32.8969 37.5469 32.3906C37.6406 31.6594 37.8375 30.9469 38.1375 30.2906C38.3813 29.7562 38.6906 29.25 39.0656 28.7906V28.7906Z" fill="#FF826E"/>
<path d="M22.5 33.75V36.9937C19.0969 36.4875 16.875 35.6437 16.875 34.6875C16.875 33.7406 19.0781 32.8969 22.4531 32.3906C22.4813 32.6719 22.5 32.9531 22.5 33.2344V33.75Z" fill="#5CD6B3"/>
<path d="M37.5469 32.3906C40.9219 32.8969 43.125 33.7406 43.125 34.6875C43.125 35.6437 40.9031 36.4875 37.5 36.9937V33.75V33.2344C37.5 32.9531 37.5187 32.6719 37.5469 32.3906V32.3906Z" fill="#5CD6B3"/>
<path d="M37.5 33.75V36.9937C35.3719 37.3125 32.7844 37.5 30 37.5C27.2156 37.5 24.6281 37.3125 22.5 36.9937V33.75H28.125H31.875H37.5Z" fill="#AAB2BD"/>
<path d="M30.1688 1.875H29.8312C25.7344 1.875 22.0312 3.53438 19.3406 6.21563C16.6594 8.90625 15 12.6094 15 16.7062C15 18.8437 15.4594 20.925 16.3219 22.8375C17.1937 24.7406 18.45 26.4562 20.0625 27.8719C20.3812 28.1531 20.6812 28.4625 20.9344 28.7906C21.7687 29.8219 22.2938 31.0687 22.4531 32.3906C22.4813 32.6719 22.5 32.9531 22.5 33.2344V33.75H28.125H31.875H37.5V33.2344C37.5 32.9531 37.5187 32.6719 37.5469 32.3906C37.6406 31.6594 37.8375 30.9469 38.1375 30.2906C38.3813 29.7563 38.6906 29.25 39.0656 28.7906C39.3187 28.4625 39.6187 28.1531 39.9375 27.8719C41.55 26.4562 42.8063 24.7406 43.6781 22.8375C44.5406 20.925 45 18.8437 45 16.7062C45 8.5125 38.3625 1.875 30.1688 1.875V1.875Z" fill="#FFEAA7"/>
<path d="M25.575 12.4969L25.9312 15.4969C25.0219 15.7875 24.075 15.9375 23.1094 15.9375C21.7406 15.9375 20.625 14.8219 20.625 13.4531V12.7969C20.625 12.1125 20.9063 11.4937 21.3563 11.0437C21.8063 10.5937 22.425 10.3125 23.1094 10.3125C24.3656 10.3125 25.425 11.25 25.575 12.4969V12.4969Z" fill="#FCD770"/>
<path d="M39.375 12.7969V13.4531C39.375 14.1375 39.0938 14.7562 38.6438 15.2062C38.1938 15.6562 37.575 15.9375 36.8906 15.9375C35.925 15.9375 34.9781 15.7875 34.0688 15.4969L34.425 12.4969C34.5 11.8687 34.8 11.325 35.2406 10.9406C35.6813 10.5469 36.2625 10.3125 36.8906 10.3125C38.2594 10.3125 39.375 11.4281 39.375 12.7969V12.7969Z" fill="#FCD770"/>
<path d="M40.9613 28.1766C44.1206 25.2019 45.9375 21.0628 45.9375 16.7072C45.9375 8.01187 38.8631 0.9375 30.1678 0.9375H29.8331C21.1369 0.9375 14.0625 8.01187 14.0625 16.7072C14.0625 21.0628 15.8794 25.2019 19.0388 28.1766C12.3675 29.4778 8.4375 31.8619 8.4375 34.6875V51.5625C8.4375 56.4338 19.5478 59.0625 30 59.0625C40.4522 59.0625 51.5625 56.4338 51.5625 51.5625V34.6875C51.5625 31.8619 47.6325 29.4778 40.9613 28.1766ZM15.9375 16.7072C15.9375 9.045 22.17 2.8125 29.8322 2.8125H30.1669C37.83 2.8125 44.0625 9.045 44.0625 16.7072C44.0625 20.7131 42.3328 24.525 39.3178 27.1641C37.6734 28.6022 36.6994 30.6431 36.585 32.8125H32.9316L34.8684 16.6734C35.5331 16.8066 36.2109 16.875 36.8916 16.875C38.7778 16.875 40.3125 15.3403 40.3125 13.4541V12.7969C40.3125 10.9097 38.7778 9.375 36.8916 9.375C35.1609 9.375 33.7013 10.6706 33.4941 12.3891L33.2784 14.19C32.7581 13.9462 32.2622 13.6491 31.8 13.3031L30 11.9531L28.2009 13.3022C27.7397 13.6481 27.2428 13.9453 26.7225 14.1891L26.5069 12.3881C26.2997 10.6706 24.8391 9.375 23.1084 9.375C21.2222 9.375 19.6875 10.9097 19.6875 12.7959V13.4531C19.6875 15.3403 21.2222 16.875 23.1084 16.875C23.7891 16.875 24.4659 16.8066 25.1316 16.6734L27.0684 32.8125H23.415C23.3006 30.6422 22.3266 28.6013 20.6822 27.1641C17.6672 24.525 15.9375 20.7131 15.9375 16.7072V16.7072ZM21.5625 35.8809C19.5666 35.5078 18.3038 35.0503 17.8969 34.6922C18.2222 34.4231 19.2403 33.9188 21.5625 33.4866V35.8809ZM23.4375 34.6875H36.5625V36.1744C34.7559 36.4069 32.5537 36.5625 30 36.5625C27.4463 36.5625 25.2441 36.4069 23.4375 36.1744V34.6875ZM28.9566 32.8125L26.955 16.1316C27.7978 15.795 28.5975 15.3497 29.325 14.8031L30 14.2969L30.675 14.8031C31.4025 15.3487 32.2022 15.795 33.045 16.1316L31.0434 32.8125H28.9566ZM38.4375 33.4866C40.7597 33.9188 41.7778 34.4231 42.1031 34.6922C41.6962 35.0513 40.4334 35.5087 38.4375 35.8809V33.4866ZM35.0925 14.805L35.3559 12.6122C35.4497 11.8359 36.1097 11.25 36.8916 11.25C37.7438 11.25 38.4375 11.9438 38.4375 12.7959V13.4531C38.4375 14.3063 37.7438 15 36.8916 15C36.2859 15 35.6822 14.9334 35.0925 14.805ZM24.9075 14.805C24.3169 14.9334 23.7141 15 23.1084 15C22.2563 15 21.5625 14.3062 21.5625 13.4541V12.7969C21.5625 11.9437 22.2563 11.25 23.1084 11.25C23.8903 11.25 24.5503 11.8359 24.6441 12.6122L24.9075 14.805ZM30 57.1875C17.8022 57.1875 10.3125 53.9109 10.3125 51.5625V49.1447C13.9134 51.9516 22.1419 53.4375 30 53.4375C37.8581 53.4375 46.0866 51.9516 49.6875 49.1447V51.5625C49.6875 53.9109 42.1978 57.1875 30 57.1875ZM30 51.5625C17.8022 51.5625 10.3125 48.2859 10.3125 45.9375V43.5197C13.9134 46.3266 22.1419 47.8125 30 47.8125C37.8581 47.8125 46.0866 46.3266 49.6875 43.5197V45.9375C49.6875 48.2859 42.1978 51.5625 30 51.5625ZM30 45.9375C17.8022 45.9375 10.3125 42.6609 10.3125 40.3125V37.8947C13.9134 40.7016 22.1419 42.1875 30 42.1875C37.8581 42.1875 46.0866 40.7016 49.6875 37.8947V40.3125C49.6875 42.6609 42.1978 45.9375 30 45.9375ZM30 40.3125C17.8022 40.3125 10.3125 37.0359 10.3125 34.6875C10.3125 33.1444 13.5197 30.9909 20.5209 29.8144C20.8894 30.3694 21.1659 30.9797 21.3394 31.6228C15.9459 32.6034 15.9375 34.1578 15.9375 34.6875C15.9375 38.3325 28.5609 38.4375 30 38.4375C31.4391 38.4375 44.0625 38.3325 44.0625 34.6875C44.0625 34.1578 44.0541 32.6034 38.6597 31.6228C38.8331 30.9787 39.1097 30.3694 39.4781 29.8144C46.4803 30.9909 49.6875 33.1444 49.6875 34.6875C49.6875 37.0359 42.1978 40.3125 30 40.3125V40.3125Z" fill="black"/>
<path d="M47.8125 15.9375H53.4375V17.8125H47.8125V15.9375Z" fill="black"/>
<path d="M46.107 9.18597L51.3045 7.0316L52.0226 8.7641L46.8251 10.9185L46.107 9.18597Z" fill="black"/>
<path d="M7.99161 8.77295L8.70973 7.04045L13.9072 9.19482L13.1891 10.9273L7.99161 8.77295Z" fill="black"/>
<path d="M6.5625 15.9375H12.1875V17.8125H6.5625V15.9375Z" fill="black"/>
<path d="M7.99423 24.9812L13.1917 22.8268L13.9099 24.5593L8.71236 26.7137L7.99423 24.9812Z" fill="black"/>
<path d="M46.1162 24.5599L46.8343 22.8274L52.0318 24.9817L51.3137 26.7142L46.1162 24.5599Z" fill="black"/>
</svg>
